# xmcd CD database file
#
# Track frame offsets:
#	150
#	18480
#	45066
#	68813
#	94333
#	108895
#	133625
#	152538
#	174657
#	196043
#
# Disc length: 2814 seconds
#
# Revision: 0
# Processed by: cddbd v1.5.2PL0 Copyright (c) Steve Scherf et al.
# Submitted via: CDex 1.51
#
DISCID=730afc0a
DTITLE=Heirlooms Of August - Forever The Moon
DYEAR=2011
DGENRE=Country
TTITLE0=Andrew And Emma
TTITLE1=Anyway, Sweetness
TTITLE2=Forever The Moon
TTITLE3=Marianna's Peace
TTITLE4=Annie
TTITLE5=Blackness From Blue
TTITLE6=Beautiful Summer
TTITLE7=Ukulele Song
TTITLE8=A Flower My Love Grows
TTITLE9=Incidental Music For Oboe
EXTD=YEAR: 2011
EXTT0=
EXTT1=
EXTT2=
EXTT3=
EXTT4=
EXTT5=
EXTT6=
EXTT7=
EXTT8=
EXTT9=
PLAYORDER=
